<?xml version="1.0" encoding="utf-8"?>
<!-- Generator: Adobe Illustrator 25.0.0, SVG Export Plug-In . SVG Version: 6.00 Build 0)  -->
<svg version="1.1" id="Слой_1" xmlns="http://www.w3.org/2000/svg" xmlns:xlink="http://www.w3.org/1999/xlink" x="0px" y="0px"
	 viewBox="0 0 841.9 595.3" style="enable-background:new 0 0 841.9 595.3;" xml:space="preserve">
<style type="text/css">
	.st0{fill:#222221;}
	.st1{fill:url(#SVGID_1_);}
	.st2{fill:url(#SVGID_2_);}
	.st3{fill:url(#SVGID_3_);}
</style>
<g>
	<g>
		<path class="st0" d="M248.9,263h-14.7l-2.5,5.1h-8.2l13.9-26.8h8.5l13.9,26.8h-8.3L248.9,263z M246.2,257.4l-4.6-9.5l-4.7,9.5
			H246.2z"/>
		<path class="st0" d="M291.2,259.7c0,5.5-5.1,9.3-14.8,9.3c-6.9,0-12.7-1.9-16.9-5.2l4.1-4.8c3.2,2.7,7.6,4.2,12.9,4.2
			c4.6,0,6.9-0.8,6.9-2.6c0-1.7-2.1-2.3-7.7-2.8c-8-0.7-15.2-2.4-15.2-8.4c0-5.7,6.2-8.9,14.7-8.9c5.7,0,11,1.4,14.7,4l-3.9,4.9
			c-3-2.1-6.6-2.9-10.8-3c-3.1,0-6.9,0.5-6.9,2.4c0,1.8,3.1,2,7.9,2.4C285,251.8,291.2,253.6,291.2,259.7z"/>
		<path class="st0" d="M322.3,247.6h-11.1v20.5h-7.8v-20.5h-11.1v-6.2h30V247.6z"/>
		<path class="st0" d="M348.8,268.1l-7.1-8.5h-7.9v8.5H326v-26.8h18.8c6.9,0,12.2,3,12.2,9.1c0,4.5-2.8,7.3-7,8.5l7.9,9.1H348.8z
			 M344.3,254c2.8,0,4.8-0.8,4.8-3.4c0-2.6-2-3.4-4.8-3.4h-10.5v6.7H344.3z"/>
		<path class="st0" d="M383.7,263H369l-2.5,5.1h-8.2l13.9-26.8h8.5l13.9,26.8h-8.3L383.7,263z M381,257.4l-4.6-9.5l-4.7,9.5H381z"/>
	</g>
	<g>
		<path class="st0" d="M255.2,298.5c0,5.5-5.1,9.3-14.8,9.3c-6.9,0-12.7-1.9-16.9-5.2l4.1-4.8c3.2,2.7,7.6,4.2,12.9,4.2
			c4.6,0,6.9-0.8,6.9-2.6c0-1.7-2.1-2.3-7.7-2.8c-8-0.7-15.2-2.4-15.2-8.4c0-5.7,6.2-8.9,14.7-8.9c5.7,0,11,1.4,14.7,4l-3.9,4.9
			c-3-2.1-6.6-2.9-10.8-3c-3.1,0-6.9,0.5-6.9,2.4c0,1.8,3.1,2,7.9,2.4C249,290.7,255.2,292.4,255.2,298.5z"/>
		<path class="st0" d="M258.1,293.5c0-9.1,6.9-14.3,17.5-14.3s17.5,5.2,17.5,14.3c0,9.1-6.9,14.3-17.5,14.3S258.1,302.6,258.1,293.5
			z M285.1,293.5c0-5.1-3.6-7.9-9.5-7.9c-5.9,0-9.5,2.9-9.5,7.9c0,5.1,3.6,7.9,9.5,7.9S285.1,298.6,285.1,293.5z"/>
		<path class="st0" d="M323.6,300.6v6.3h-25.8v-26.8h7.8v20.5H323.6z"/>
		<path class="st0" d="M357,280.1v14.2c0,8.2-5.5,13.5-15.5,13.5s-15.6-5.4-15.6-13.5v-14.2h7.8v13.5c0,4.7,2.6,7.7,7.8,7.7
			c5.2,0,7.7-3,7.7-7.7v-13.5H357z"/>
		<path class="st0" d="M390.3,286.4h-11.1v20.6h-7.8v-20.6h-11.1v-6.2h30V286.4z"/>
		<path class="st0" d="M394,306.9v-26.8h7.8v26.8H394z"/>
		<path class="st0" d="M406.5,293.5c0-9.1,6.9-14.3,17.5-14.3s17.5,5.2,17.5,14.3c0,9.1-6.9,14.3-17.5,14.3S406.5,302.6,406.5,293.5
			z M433.5,293.5c0-5.1-3.6-7.9-9.5-7.9c-5.9,0-9.5,2.9-9.5,7.9c0,5.1,3.6,7.9,9.5,7.9S433.5,298.6,433.5,293.5z"/>
		<path class="st0" d="M477.9,280.1v26.8h-6.9l-17.3-17.6v17.6h-7.5v-26.8h8.3l15.9,16.4v-16.4H477.9z"/>
		<path class="st0" d="M513.7,298.5c0,5.5-5.1,9.3-14.8,9.3c-6.9,0-12.7-1.9-16.9-5.2l4.1-4.8c3.2,2.7,7.6,4.2,12.9,4.2
			c4.6,0,6.9-0.8,6.9-2.6c0-1.7-2.1-2.3-7.7-2.8c-8-0.7-15.2-2.4-15.2-8.4c0-5.7,6.2-8.9,14.7-8.9c5.7,0,11,1.4,14.7,4l-3.9,4.9
			c-3-2.1-6.6-2.9-10.8-3c-3.1,0-6.9,0.5-6.9,2.4c0,1.8,3.1,2,7.9,2.4C507.5,290.7,513.7,292.4,513.7,298.5z"/>
	</g>
	<g>
		<linearGradient id="SVGID_1_" gradientUnits="userSpaceOnUse" x1="617.861" y1="265.1408" x2="300.6086" y2="378.3227">
			<stop  offset="0" style="stop-color:#FF7500"/>
			<stop  offset="1" style="stop-color:#FF0026"/>
		</linearGradient>
		<path class="st1" d="M618.4,248.7l-37.2,12.8l-13.7-30.3l-9.3,38.3l-37.2,12.8L552,293c-1.9,3.1-4,6.1-6.2,9
			c-5.4,7.4-11.6,14.3-18.5,20.3c-6.9,6-14.3,11.4-22.5,15.6c-4,2.1-8.3,3.9-12.6,5.5c-2.2,0.7-4.3,1.5-6.6,2l-3.3,0.9l-3.5,0.8
			c-9.3,2.3-18.8,3.8-28.4,4.7c-9.6,0.8-19.3,0.8-28.9,0c-9.6-0.8-19.3-2.6-28.7-5.3c-9.4-2.8-18.7-6.4-27.1-11.7
			c3.7,3.4,7.8,6.2,12.1,8.9c4.3,2.6,8.8,5,13.4,7.1c9.2,4.1,19,7.3,29,9.5c10,2.3,20.2,3.3,30.5,3.7c10.3,0.3,20.6-0.2,30.8-1.4
			l3.8-0.5l3.9-0.7c2.6-0.4,5.2-1.1,7.9-1.7c5.1-1.4,10.3-3.1,15.3-5.2c9.9-4.1,19.3-9.6,27.9-16.2c8.5-6.6,16.2-14.1,23.1-22.3
			c3.4-4.1,6.6-8.4,9.6-12.9c0.5-0.8,1-1.5,1.5-2.3l28.6,9.8l-13.7-30.3L618.4,248.7z M568.9,251.3l3.9,13.1l-6.6,2.3L568.9,251.3z
			 M545.5,282l54.8-21.1l0.5-0.2l-29.2,25.8l-2,1.8l-7.2-1.9l-5.7-1.5L545.5,282z"/>
		<linearGradient id="SVGID_2_" gradientUnits="userSpaceOnUse" x1="606.4125" y1="238.4192" x2="509.4549" y2="309.8388">
			<stop  offset="0" style="stop-color:#FF7500"/>
			<stop  offset="1" style="stop-color:#FF0026"/>
		</linearGradient>
		<polygon class="st2" points="600.3,260.9 545.5,282 556.7,284.9 562.4,286.4 552.4,293.1 552,293 520.9,282.3 558.1,269.5 
			566.2,266.7 572.8,264.4 581.1,261.5 618.4,248.7 		"/>
		<linearGradient id="SVGID_3_" gradientUnits="userSpaceOnUse" x1="595.9382" y1="254.5258" x2="363.8521" y2="351.5706">
			<stop  offset="0" style="stop-color:#FF7500"/>
			<stop  offset="1" style="stop-color:#FF0026"/>
		</linearGradient>
		<polygon class="st3" points="572.8,264.5 566.2,266.8 566.2,266.7 572.8,264.4 		"/>
	</g>
	<g>
		<path class="st0" d="M285.3,322.4H280l-1.1,2h-1.6l4.5-8.4h1.6l4.5,8.4h-1.6L285.3,322.4z M284.7,321.2l-2-3.9l-2,3.9H284.7z"/>
		<path class="st0" d="M296.5,322l1.3,0.7c-0.8,1.2-2.3,2.1-4.4,2.1c-3.1,0-5.1-1.7-5.1-4.4c0-2.7,2-4.4,5.2-4.4
			c2.1,0,3.6,0.9,4.4,2.1l-1.3,0.7c-0.6-1-1.7-1.5-3-1.5c-2.2,0-3.7,1.1-3.7,3.2c0,2.1,1.5,3.2,3.7,3.2
			C294.8,323.5,295.9,323,296.5,322z"/>
		<path class="st0" d="M307,322l1.3,0.7c-0.8,1.2-2.3,2.1-4.4,2.1c-3.1,0-5.1-1.7-5.1-4.4c0-2.7,2-4.4,5.2-4.4
			c2.1,0,3.6,0.9,4.4,2.1l-1.3,0.7c-0.6-1-1.7-1.5-3-1.5c-2.2,0-3.7,1.1-3.7,3.2c0,2.1,1.5,3.2,3.7,3.2
			C305.3,323.5,306.4,323,307,322z"/>
		<path class="st0" d="M309.4,320.3c0-2.8,2-4.4,5.2-4.4c3.2,0,5.2,1.7,5.2,4.4c0,2.8-2,4.4-5.2,4.4
			C311.4,324.7,309.4,323,309.4,320.3z M318.3,320.3c0-2-1.5-3.2-3.7-3.2s-3.7,1.1-3.7,3.2c0,2,1.5,3.2,3.7,3.2
			C316.8,323.5,318.3,322.3,318.3,320.3z"/>
		<path class="st0" d="M330.6,316.1v4.4c0,2.5-1.6,4.2-4.5,4.2c-2.9,0-4.5-1.7-4.5-4.2v-4.4h1.4v4.3c0,1.9,1.1,3,3.1,3
			c2,0,3.1-1.1,3.1-3v-4.3H330.6z"/>
		<path class="st0" d="M342.2,316.1v8.4h-1.3l-6.5-6.6v6.6H333v-8.4h1.5l6.3,6.3v-6.3H342.2z"/>
		<path class="st0" d="M352.7,317.4h-3.8v7.1h-1.4v-7.1h-3.8v-1.3h9V317.4z"/>
		<path class="st0" d="M354.2,324.5v-8.4h1.4v8.4H354.2z"/>
		<path class="st0" d="M367.3,316.1v8.4h-1.3l-6.5-6.6v6.6h-1.4v-8.4h1.5l6.3,6.3v-6.3H367.3z"/>
		<path class="st0" d="M379.3,322.6c-0.8,1.2-2.4,2.1-4.7,2.1c-3.3,0-5.3-1.7-5.3-4.4c0-2.8,2-4.4,5.2-4.4c2.1,0,3.5,0.8,4.3,1.7
			l-1.2,0.8c-0.7-0.8-1.7-1.2-3.1-1.2c-2.4,0-3.8,1.1-3.8,3.2c0,2.1,1.5,3.2,3.9,3.2c1.5,0,2.7-0.4,3.3-1.3v-1h-3.5v-1.2h4.9V322.6z
			"/>
		<path class="st0" d="M393.4,322c0,1.6-1.6,2.7-4.4,2.7c-2,0-3.7-0.6-5-1.7l0.9-1c1.1,1,2.5,1.5,4.2,1.5c1.9,0,2.9-0.5,2.9-1.4
			c0-0.9-1-1.1-3.2-1.3c-2.3-0.2-4.5-0.7-4.5-2.4c0-1.7,1.9-2.6,4.3-2.6c1.8,0,3.4,0.5,4.4,1.4l-0.9,1c-0.9-0.8-2-1.1-3.4-1.1
			c-1.3,0-2.9,0.3-2.9,1.2c0,0.9,1.4,1,3.2,1.2C391.6,319.7,393.4,320.3,393.4,322z"/>
		<path class="st0" d="M403.5,323.2v1.3h-8.3v-8.4h8.2v1.3h-6.8v2.2h5.7v1.3h-5.7v2.4H403.5z"/>
		<path class="st0" d="M412.9,324.5l-2.6-3h-3.5v3h-1.4v-8.4h5.7c1.9,0,3.4,0.9,3.4,2.7c0,1.4-1,2.3-2.5,2.6l2.7,3.1H412.9z
			 M410.9,320.2c1.2,0,2-0.4,2-1.4s-0.8-1.4-2-1.4h-4.2v2.8H410.9z"/>
		<path class="st0" d="M416.5,316.1l3.5,6.9l3.5-6.9h1.6l-4.3,8.4h-1.5l-4.3-8.4H416.5z"/>
		<path class="st0" d="M426.5,324.5v-8.4h1.4v8.4H426.5z"/>
		<path class="st0" d="M438.1,322l1.3,0.7c-0.8,1.2-2.3,2.1-4.4,2.1c-3.1,0-5.1-1.7-5.1-4.4c0-2.7,2-4.4,5.2-4.4
			c2.1,0,3.6,0.9,4.4,2.1l-1.3,0.7c-0.6-1-1.7-1.5-3-1.5c-2.2,0-3.7,1.1-3.7,3.2c0,2.1,1.5,3.2,3.7,3.2
			C436.4,323.5,437.4,323,438.1,322z"/>
		<path class="st0" d="M449.4,323.2v1.3h-8.3v-8.4h8.2v1.3h-6.8v2.2h5.7v1.3h-5.7v2.4H449.4z"/>
		<path class="st0" d="M459.9,322c0,1.6-1.6,2.7-4.4,2.7c-2,0-3.7-0.6-5-1.7l0.9-1c1.1,1,2.5,1.5,4.2,1.5c1.9,0,2.9-0.5,2.9-1.4
			c0-0.9-1-1.1-3.2-1.3c-2.3-0.2-4.5-0.7-4.5-2.4c0-1.7,1.9-2.6,4.3-2.6c1.8,0,3.4,0.5,4.4,1.4l-0.9,1c-0.9-0.8-2-1.1-3.4-1.1
			c-1.3,0-2.9,0.3-2.9,1.2c0,0.9,1.4,1,3.2,1.2C458,319.7,459.9,320.3,459.9,322z"/>
	</g>
</g>
</svg>
